<?xml version="1.0" encoding="UTF-8"?>
<svg xmlns="http://www.w3.org/2000/svg" viewBox="0 0 256 256">
  <rect x="0" y="0" width="256" height="256" rx="56" fill="#000000"/>
  <rect x="3" y="3" width="250" height="250" rx="54" fill="none" stroke="#ffffff" stroke-opacity="0.16" stroke-width="2"/>
  <g transform="rotate(-38 128 128)" opacity="0.45">
    <rect x="40" y="124" width="120" height="20" rx="10" fill="#000000"/>
    <rect x="150" y="84" width="74" height="100" rx="14" fill="#000000"/>
  </g>
  <g transform="rotate(-38 128 128)">
    <rect x="36" y="118" width="120" height="20" rx="10" fill="#ffffff"/>
    <rect x="44" y="121.5" width="100" height="2" rx="1" fill="#000000" fill-opacity="0.18"/>
    <rect x="56" y="116" width="3" height="24" rx="1.5" fill="#000000" fill-opacity="0.20"/>
    <rect x="68" y="116" width="3" height="24" rx="1.5" fill="#000000" fill-opacity="0.16"/>
    <rect x="80" y="116" width="3" height="24" rx="1.5" fill="#000000" fill-opacity="0.12"/>
    <rect x="146" y="78" width="74" height="100" rx="14" fill="#ffffff"/>
    <rect x="208" y="86" width="6" height="84" rx="3" fill="#ffffff" fill-opacity="0.55"/>
    <path fill="#000000" d="M 146 96 L 178 128 L 146 160 Z"/>
  </g>
</svg>
